<svg width="29" height="29" viewBox="0 0 29 29" fill="none" xmlns="http://www.w3.org/2000/svg">
<g style="mix-blend-mode:darken">
<path d="M13.3501 28.0296C5.99128 28.0296 0 21.74 0 14.0148C0 6.28957 5.99128 0 13.3501 0C20.709 0 26.7003 6.28957 26.7003 14.0148C26.7003 21.74 20.709 28.0296 13.3501 28.0296ZM13.3501 2.05095C7.0593 2.05095 1.95368 7.42443 1.95368 14.0148C1.95368 20.6052 7.0593 25.9787 13.3501 25.9787C19.641 25.9787 24.7466 20.6052 24.7466 14.0148C24.7466 7.42443 19.641 2.05095 13.3501 2.05095Z" fill="#292D32"/>
<path d="M28.0264 26.3968C27.779 26.3968 27.5315 26.3011 27.3361 26.096L24.7312 23.3614C24.3535 22.9649 24.3535 22.3086 24.7312 21.9121C25.1089 21.5156 25.7341 21.5156 26.1118 21.9121L28.7167 24.6467C29.0944 25.0432 29.0944 25.6995 28.7167 26.096C28.5214 26.3011 28.2739 26.3968 28.0264 26.3968Z" fill="#292D32"/>
</g>
</svg>
