<svg width="30" height="30" viewBox="0 0 30 30" fill="none" xmlns="http://www.w3.org/2000/svg">
<path d="M27.3913 5.75151L17.5839 0.627437C15.9824 -0.209146 14.0011 -0.209146 12.383 0.627437L2.59219 5.75151C0.990645 6.58809 0 8.14175 0 9.82985V20.0481C0 21.7213 0.990645 23.2749 2.59219 24.1265L12.3995 29.2505C14.0011 30.0871 15.9824 30.0871 17.6004 29.2505L27.4078 24.1265C29.0094 23.2899 30 21.7362 30 20.0481V9.82985C29.9835 8.14175 28.9928 6.60303 27.3913 5.75151ZM13.7534 8.58992C13.7534 7.97742 14.3148 7.46949 14.9917 7.46949C15.6687 7.46949 16.23 7.97742 16.23 8.58992V16.4329C16.23 17.0454 15.6687 17.5533 14.9917 17.5533C14.3148 17.5533 13.7534 17.0454 13.7534 16.4329V8.58992ZM16.5107 21.8557C16.4282 22.035 16.3126 22.1993 16.164 22.3487C15.8503 22.6326 15.4375 22.782 14.9917 22.782C14.7771 22.782 14.5624 22.7371 14.3643 22.6624C14.1497 22.5877 13.9846 22.4832 13.8195 22.3487C13.6709 22.1993 13.5553 22.035 13.4562 21.8557C13.3737 21.6765 13.3407 21.4823 13.3407 21.2881C13.3407 20.8996 13.5058 20.5112 13.8195 20.2274C13.9846 20.0929 14.1497 19.9884 14.3643 19.9137C14.9752 19.6746 15.7017 19.8091 16.164 20.2274C16.3126 20.3768 16.4282 20.5262 16.5107 20.7204C16.5933 20.8996 16.6428 21.0938 16.6428 21.2881C16.6428 21.4823 16.5933 21.6765 16.5107 21.8557Z" fill="#A28D8D"/>
</svg>
