<svg width="35" height="35" viewBox="0 0 35 35" fill="none" xmlns="http://www.w3.org/2000/svg">
<g filter="url(#filter0_d_3_152)">
<path d="M13.6496 7.21887C12.8936 7.21887 12.2997 7.81077 12.2997 8.53419C12.2997 9.25762 12.9071 9.84951 13.6496 9.84951C14.392 9.84951 14.9994 9.25762 14.9994 8.53419C14.9994 7.81077 14.392 7.21887 13.6496 7.21887Z" fill="#292D32"/>
<path d="M30.2688 3.99857C29.1349 1.4337 26.6376 0 23.1549 0H11.8428C7.5097 0 4 3.41983 4 7.642V18.6644C4 22.0579 5.47137 24.4912 8.10365 25.5961C8.36013 25.7013 8.6571 25.6356 8.84609 25.4514L30.1203 4.722C30.3228 4.5247 30.3903 4.23533 30.2688 3.99857ZM15.5145 13.4689C14.9881 13.9687 14.2996 14.2054 13.6112 14.2054C12.9227 14.2054 12.2343 13.9555 11.7078 13.4689C10.331 12.2062 8.81909 10.1937 9.39954 7.79984C9.9125 5.62956 11.8833 4.65623 13.6112 4.65623C15.339 4.65623 17.3099 5.62957 17.8228 7.81299C18.3898 10.1937 16.8779 12.2062 15.5145 13.4689Z" fill="#292D32"/>
<path d="M27.581 24.3723C27.878 24.6616 27.8375 25.1351 27.473 25.3324C26.2851 25.9769 24.8408 26.3058 23.1534 26.3058H11.8414C11.4499 26.3058 11.2879 25.8586 11.5579 25.5955L19.7112 17.651C19.9812 17.3879 20.3996 17.3879 20.6696 17.651L27.581 24.3723Z" fill="#292D32"/>
<path d="M31 7.64058V18.6629C31 20.3071 30.6625 21.7276 30.0011 22.8719C29.7986 23.2271 29.3126 23.2534 29.0157 22.9772L22.1042 16.2427C21.8343 15.9797 21.8343 15.5719 22.1042 15.3089L30.2576 7.36436C30.541 7.1013 31 7.25914 31 7.64058Z" fill="#292D32"/>
</g>
<defs>
<filter id="filter0_d_3_152" x="0" y="0" width="35" height="34.3058" filterUnits="userSpaceOnUse" color-interpolation-filters="sRGB">
<feFlood flood-opacity="0" result="BackgroundImageFix"/>
<feColorMatrix in="SourceAlpha" type="matrix" values="0 0 0 0 0 0 0 0 0 0 0 0 0 0 0 0 0 0 127 0" result="hardAlpha"/>
<feOffset dy="4"/>
<feGaussianBlur stdDeviation="2"/>
<feComposite in2="hardAlpha" operator="out"/>
<feColorMatrix type="matrix" values="0 0 0 0 0 0 0 0 0 0 0 0 0 0 0 0 0 0 0.25 0"/>
<feBlend mode="normal" in2="BackgroundImageFix" result="effect1_dropShadow_3_152"/>
<feBlend mode="normal" in="SourceGraphic" in2="effect1_dropShadow_3_152" result="shape"/>
</filter>
</defs>
</svg>
