<svg width="32" height="29" viewBox="0 0 32 29" fill="none" xmlns="http://www.w3.org/2000/svg">
<path d="M30.3158 11.8755H25.4484C21.4568 11.8755 18.2063 9.077 18.2063 5.6405V1.45C18.2063 0.6525 17.4484 0 16.5221 0H9.38105C4.19368 0 0 2.9 0 8.0765V20.9235C0 26.1 4.19368 29 9.38105 29H22.6189C27.8063 29 32 26.1 32 20.9235V13.3255C32 12.528 31.2421 11.8755 30.3158 11.8755ZM15.2084 16.7185C14.9558 16.936 14.6358 17.0375 14.3158 17.0375C13.9958 17.0375 13.6758 16.936 13.4232 16.7185L12.2105 15.6745V21.75C12.2105 22.3445 11.6379 22.8375 10.9474 22.8375C10.2568 22.8375 9.68421 22.3445 9.68421 21.75V15.6745L8.47158 16.7185C7.98316 17.139 7.17474 17.139 6.68632 16.7185C6.19789 16.298 6.19789 15.602 6.68632 15.1815L10.0547 12.2815C10.1726 12.1945 10.2905 12.122 10.4253 12.064C10.4589 12.0495 10.5095 12.035 10.5432 12.0205C10.6442 11.9915 10.7453 11.977 10.8632 11.9625H10.9979C11.1326 11.9625 11.2674 11.9915 11.4021 12.035H11.4358C11.5705 12.0785 11.7053 12.1655 11.8063 12.2525C11.8232 12.267 11.84 12.267 11.84 12.2815L15.2084 15.1815C15.6968 15.602 15.6968 16.298 15.2084 16.7185Z" fill="#292D32"/>
<path d="M25.1446 9.87519C26.7446 9.88969 28.9678 9.88969 30.871 9.88969C31.831 9.88969 32.3362 8.91819 31.6625 8.33819C29.2373 6.23569 24.892 2.45119 22.3994 0.305186C21.7089 -0.289314 20.5131 0.116686 20.5131 0.943186V6.00369C20.5131 8.12069 22.6015 9.87519 25.1446 9.87519Z" fill="#292D32"/>
</svg>
