<svg width="33" height="29" viewBox="0 0 33 29" fill="none" xmlns="http://www.w3.org/2000/svg">
<path d="M25.0806 12.6904C24.3902 12.6904 23.8443 12.1829 23.8443 11.5738C23.8443 11.0373 23.2502 9.92072 22.2546 8.94917C21.2752 8.00663 20.1994 7.4556 19.3002 7.4556C18.6098 7.4556 18.0638 6.94808 18.0638 6.33905C18.0638 5.73003 18.6258 5.2225 19.3002 5.2225C20.9059 5.2225 22.5918 6.00554 24.0691 7.4121C25.4499 8.73166 26.3331 10.3702 26.3331 11.5593C26.3331 12.1829 25.7711 12.6904 25.0806 12.6904Z" fill="#292D32"/>
<path d="M30.8768 12.6881C30.1864 12.6881 29.6404 12.1805 29.6404 11.5715C29.6404 6.42379 25 2.2476 19.316 2.2476C18.6255 2.2476 18.0796 1.74008 18.0796 1.13105C18.0796 0.522023 18.6255 0 19.2999 0C26.3649 0 32.1132 5.19123 32.1132 11.5715C32.1132 12.1805 31.5512 12.6881 30.8768 12.6881Z" fill="#292D32"/>
<path d="M14.5313 18.7783L11.5608 21.461C10.9346 22.0265 9.93912 22.0265 9.29685 21.4755C9.12022 21.316 8.9436 21.171 8.76697 21.0114C7.11313 19.5034 5.61986 17.9228 4.28715 16.2697C2.9705 14.6167 1.91075 12.9636 1.14003 11.325C0.385362 9.67194 0 8.09136 0 6.5833C0 5.59725 0.192681 4.65471 0.578042 3.78467C0.963404 2.90013 1.57356 2.08809 2.42457 1.36306C3.4522 0.44952 4.57617 0 5.76437 0C6.21395 0 6.66354 0.087004 7.06496 0.261012C7.48244 0.43502 7.85174 0.696031 8.14076 1.07305L11.8659 5.81476C12.1549 6.17728 12.3637 6.51079 12.5082 6.82981C12.6527 7.13432 12.733 7.43884 12.733 7.71435C12.733 8.06236 12.6206 8.41038 12.3958 8.74389C12.1871 9.07741 11.882 9.42542 11.4966 9.77344L10.2763 10.919C10.0997 11.0785 10.0194 11.267 10.0194 11.499C10.0194 11.615 10.0355 11.7165 10.0676 11.8325C10.1157 11.9485 10.1639 12.0355 10.196 12.1225C10.485 12.6011 10.9828 13.2246 11.6893 13.9786C12.4119 14.7327 13.1826 15.5012 14.0175 16.2697C14.1781 16.4147 14.3547 16.5597 14.5153 16.7048C15.1576 17.2703 15.1736 18.1983 14.5313 18.7783Z" fill="#292D32"/>
<path d="M32.0647 23.6782C32.0647 24.0843 31.9844 24.5048 31.8238 24.9108C31.7757 25.0268 31.7275 25.1428 31.6633 25.2588C31.3903 25.7808 31.037 26.2739 30.5714 26.7379C29.7846 27.5209 28.9176 28.0864 27.9381 28.449C27.922 28.449 27.906 28.4635 27.8899 28.4635C26.9426 28.8115 25.9149 29 24.807 29C23.1692 29 21.4191 28.652 19.5725 27.9414C17.726 27.2309 15.8795 26.2739 14.049 25.0703C13.4228 24.6498 12.7966 24.2293 12.2025 23.7797L17.453 19.038C17.9026 19.3425 18.3041 19.5746 18.6412 19.7341C18.7215 19.7631 18.8179 19.8066 18.9303 19.8501C19.0587 19.8936 19.1872 19.9081 19.3317 19.9081C19.6047 19.9081 19.8134 19.8211 19.99 19.6616L21.2103 18.574C21.6117 18.2115 21.9971 17.936 22.3664 17.762C22.7357 17.559 23.105 17.4575 23.5064 17.4575C23.8115 17.4575 24.1326 17.5155 24.4859 17.646C24.8391 17.7765 25.2085 17.965 25.6099 18.2115L30.9246 21.6191C31.3421 21.8802 31.6311 22.1847 31.8078 22.5472C31.9683 22.9097 32.0647 23.2722 32.0647 23.6782Z" fill="#292D32"/>
</svg>
