<svg width="30" height="29" viewBox="0 0 30 29" fill="none" xmlns="http://www.w3.org/2000/svg">
<path d="M27.3913 5.47424L17.5839 0.59719C15.9824 -0.199063 14.0011 -0.199063 12.383 0.59719L2.59219 5.47424C0.990645 6.27049 0 7.74925 0 9.35597V19.0816C0 20.6741 0.990645 22.1529 2.59219 22.9634L12.3995 27.8404C14.0011 28.6367 15.9824 28.6367 17.6004 27.8404L27.4078 22.9634C29.0094 22.1671 30 20.6884 30 19.0816V9.35597C29.9835 7.74925 28.9928 6.28471 27.3913 5.47424ZM13.7534 8.17581C13.7534 7.59284 14.3148 7.1094 14.9917 7.1094C15.6687 7.1094 16.23 7.59284 16.23 8.17581V15.6407C16.23 16.2237 15.6687 16.7071 14.9917 16.7071C14.3148 16.7071 13.7534 16.2237 13.7534 15.6407V8.17581ZM16.5107 20.8021C16.4282 20.9727 16.3126 21.1291 16.164 21.2713C15.8503 21.5415 15.4375 21.6837 14.9917 21.6837C14.7771 21.6837 14.5624 21.641 14.3643 21.5699C14.1497 21.4988 13.9846 21.3993 13.8195 21.2713C13.6709 21.1291 13.5553 20.9727 13.4562 20.8021C13.3737 20.6315 13.3407 20.4466 13.3407 20.2618C13.3407 19.8921 13.5058 19.5224 13.8195 19.2523C13.9846 19.1243 14.1497 19.0248 14.3643 18.9537C14.9752 18.7262 15.7017 18.8541 16.164 19.2523C16.3126 19.3944 16.4282 19.5366 16.5107 19.7215C16.5933 19.8921 16.6428 20.077 16.6428 20.2618C16.6428 20.4466 16.5933 20.6315 16.5107 20.8021Z" fill="#A28D8D"/>
</svg>
