<svg width="118" height="250" viewBox="0 0 118 250" fill="none" xmlns="http://www.w3.org/2000/svg">
<g filter="url(#filter0_d_3_128)">
<path d="M5 16C5 7.71572 11.7157 1 20 1H98C106.284 1 113 7.71573 113 16V222C113 230.284 106.284 237 98 237H20C11.7157 237 5 230.284 5 222V16Z" fill="#263168"/>
<path d="M98 0.5H20C11.4396 0.5 4.5 7.43958 4.5 16V222C4.5 230.56 11.4396 237.5 20 237.5H98C106.56 237.5 113.5 230.56 113.5 222V16C113.5 7.43959 106.56 0.5 98 0.5Z" stroke="#263268"/>
</g>
<defs>
<filter id="filter0_d_3_128" x="0" y="0" width="118" height="250" filterUnits="userSpaceOnUse" color-interpolation-filters="sRGB">
<feFlood flood-opacity="0" result="BackgroundImageFix"/>
<feColorMatrix in="SourceAlpha" type="matrix" values="0 0 0 0 0 0 0 0 0 0 0 0 0 0 0 0 0 0 127 0" result="hardAlpha"/>
<feOffset dy="8"/>
<feGaussianBlur stdDeviation="2"/>
<feComposite in2="hardAlpha" operator="out"/>
<feColorMatrix type="matrix" values="0 0 0 0 0 0 0 0 0 0 0 0 0 0 0 0 0 0 0.25 0"/>
<feBlend mode="normal" in2="BackgroundImageFix" result="effect1_dropShadow_3_128"/>
<feBlend mode="normal" in="SourceGraphic" in2="effect1_dropShadow_3_128" result="shape"/>
</filter>
</defs>
</svg>
